<mxfile host="app.diagrams.net" modified="2023-10-31T17:30:06.706Z" agent="Mozilla/5.0 (Windows NT 10.0; Win64; x64; rv:109.0) Gecko/20100101 Firefox/119.0" etag="EBACmA0i1mZpml1lRk7B" version="22.0.8" type="github">
  <diagram name="Page-1" id="wJgdJeT0TTyLGdxhHsTX">
    <mxGraphModel dx="1095" dy="2199" grid="1" gridSize="10" guides="1" tooltips="1" connect="1" arrows="1" fold="1" page="1" pageScale="1" pageWidth="1169" pageHeight="827" math="0" shadow="0">
      <root>
        <mxCell id="0" />
        <mxCell id="1" parent="0" />
        <mxCell id="6mEHmpXmrWAggm7oItha-50" value="" style="rounded=1;whiteSpace=wrap;html=1;" parent="1" vertex="1">
          <mxGeometry x="800" width="369" height="160" as="geometry" />
        </mxCell>
        <mxCell id="6mEHmpXmrWAggm7oItha-53" value="2314280" style="text;strokeColor=none;fillColor=none;html=1;fontSize=24;fontStyle=1;verticalAlign=middle;align=center;" parent="1" vertex="1">
          <mxGeometry x="870" y="60" width="100" height="40" as="geometry" />
        </mxCell>
        <mxCell id="6mEHmpXmrWAggm7oItha-61" value="" style="shape=mxgraph.ios7.icons.user;html=1;backgroundOutline=1;verticalLabelPosition=bottom;labelBackgroundColor=#ffffff;verticalAlign=top;strokeWidth=2;strokeColor=#0080F0;shadow=0;dashed=0;" parent="1" vertex="1">
          <mxGeometry x="1020" y="3" width="100" height="103" as="geometry" />
        </mxCell>
        <mxCell id="6mEHmpXmrWAggm7oItha-62" value="&lt;div&gt;Ryan Beck&lt;/div&gt;" style="text;strokeColor=none;fillColor=none;html=1;fontSize=24;fontStyle=1;verticalAlign=middle;align=center;" parent="1" vertex="1">
          <mxGeometry x="870" y="18" width="100" height="40" as="geometry" />
        </mxCell>
        <mxCell id="6mEHmpXmrWAggm7oItha-67" value="" style="rounded=1;whiteSpace=wrap;html=1;" parent="1" vertex="1">
          <mxGeometry x="800" y="170" width="369" height="400" as="geometry" />
        </mxCell>
        <mxCell id="mPOBOwqpveRPDrDFqY1y-97" value="" style="strokeWidth=1;shadow=0;dashed=0;align=center;html=1;shape=mxgraph.mockup.forms.rrect;rSize=5;strokeColor=#999999;fillColor=#ffffff;" vertex="1" parent="1">
          <mxGeometry x="810" y="380" width="349.5" height="160" as="geometry" />
        </mxCell>
        <mxCell id="mPOBOwqpveRPDrDFqY1y-98" value="October 2014" style="strokeWidth=1;shadow=0;dashed=0;align=center;html=1;shape=mxgraph.mockup.forms.anchor;fontColor=#999999;" vertex="1" parent="mPOBOwqpveRPDrDFqY1y-97">
          <mxGeometry x="65.53125" y="7.314285714285714" width="218.43749999999994" height="18.285714285714285" as="geometry" />
        </mxCell>
        <mxCell id="mPOBOwqpveRPDrDFqY1y-99" value="&lt;" style="strokeWidth=1;shadow=0;dashed=0;align=center;html=1;shape=mxgraph.mockup.forms.rrect;rSize=4;strokeColor=#999999;fontColor=#008cff;fontSize=19;fontStyle=1;" vertex="1" parent="mPOBOwqpveRPDrDFqY1y-97">
          <mxGeometry x="17.475" y="7.314285714285714" width="54.609374999999986" height="18.285714285714285" as="geometry" />
        </mxCell>
        <mxCell id="mPOBOwqpveRPDrDFqY1y-100" value="&gt;" style="strokeWidth=1;shadow=0;dashed=0;align=center;html=1;shape=mxgraph.mockup.forms.rrect;rSize=4;strokeColor=#999999;fontColor=#008cff;fontSize=19;fontStyle=1;" vertex="1" parent="mPOBOwqpveRPDrDFqY1y-97">
          <mxGeometry x="277.415625" y="7.314285714285714" width="54.609374999999986" height="18.285714285714285" as="geometry" />
        </mxCell>
        <mxCell id="mPOBOwqpveRPDrDFqY1y-101" value="Mo" style="strokeWidth=1;shadow=0;dashed=0;align=center;html=1;shape=mxgraph.mockup.forms.anchor;fontColor=#999999;" vertex="1" parent="mPOBOwqpveRPDrDFqY1y-97">
          <mxGeometry x="21.843749999999993" y="25.6" width="43.687499999999986" height="18.285714285714285" as="geometry" />
        </mxCell>
        <mxCell id="mPOBOwqpveRPDrDFqY1y-102" value="Tu" style="strokeWidth=1;shadow=0;dashed=0;align=center;html=1;shape=mxgraph.mockup.forms.anchor;fontColor=#999999;" vertex="1" parent="mPOBOwqpveRPDrDFqY1y-97">
          <mxGeometry x="65.53125" y="25.6" width="43.687499999999986" height="18.285714285714285" as="geometry" />
        </mxCell>
        <mxCell id="mPOBOwqpveRPDrDFqY1y-103" value="We" style="strokeWidth=1;shadow=0;dashed=0;align=center;html=1;shape=mxgraph.mockup.forms.anchor;fontColor=#999999;" vertex="1" parent="mPOBOwqpveRPDrDFqY1y-97">
          <mxGeometry x="109.21874999999997" y="25.6" width="43.687499999999986" height="18.285714285714285" as="geometry" />
        </mxCell>
        <mxCell id="mPOBOwqpveRPDrDFqY1y-104" value="Th" style="strokeWidth=1;shadow=0;dashed=0;align=center;html=1;shape=mxgraph.mockup.forms.anchor;fontColor=#999999;" vertex="1" parent="mPOBOwqpveRPDrDFqY1y-97">
          <mxGeometry x="152.90624999999994" y="25.6" width="43.687499999999986" height="18.285714285714285" as="geometry" />
        </mxCell>
        <mxCell id="mPOBOwqpveRPDrDFqY1y-105" value="Fr" style="strokeWidth=1;shadow=0;dashed=0;align=center;html=1;shape=mxgraph.mockup.forms.anchor;fontColor=#999999;" vertex="1" parent="mPOBOwqpveRPDrDFqY1y-97">
          <mxGeometry x="196.59374999999994" y="25.6" width="43.687499999999986" height="18.285714285714285" as="geometry" />
        </mxCell>
        <mxCell id="mPOBOwqpveRPDrDFqY1y-106" value="Sa" style="strokeWidth=1;shadow=0;dashed=0;align=center;html=1;shape=mxgraph.mockup.forms.anchor;fontColor=#999999;" vertex="1" parent="mPOBOwqpveRPDrDFqY1y-97">
          <mxGeometry x="240.28124999999997" y="25.6" width="43.687499999999986" height="18.285714285714285" as="geometry" />
        </mxCell>
        <mxCell id="mPOBOwqpveRPDrDFqY1y-107" value="Su" style="strokeWidth=1;shadow=0;dashed=0;align=center;html=1;shape=mxgraph.mockup.forms.anchor;fontColor=#999999;" vertex="1" parent="mPOBOwqpveRPDrDFqY1y-97">
          <mxGeometry x="283.9687499999999" y="25.6" width="43.687499999999986" height="18.285714285714285" as="geometry" />
        </mxCell>
        <mxCell id="mPOBOwqpveRPDrDFqY1y-108" value="1" style="strokeWidth=1;shadow=0;dashed=0;align=center;html=1;shape=mxgraph.mockup.forms.rrect;rSize=0;strokeColor=#999999;fontColor=#999999;" vertex="1" parent="mPOBOwqpveRPDrDFqY1y-97">
          <mxGeometry x="21.843749999999993" y="43.88571428571428" width="43.687499999999986" height="18.285714285714285" as="geometry" />
        </mxCell>
        <mxCell id="mPOBOwqpveRPDrDFqY1y-109" value="2" style="strokeWidth=1;shadow=0;dashed=0;align=center;html=1;shape=mxgraph.mockup.forms.rrect;rSize=0;strokeColor=#999999;fontColor=#999999;" vertex="1" parent="mPOBOwqpveRPDrDFqY1y-97">
          <mxGeometry x="65.53125" y="43.88571428571428" width="43.687499999999986" height="18.285714285714285" as="geometry" />
        </mxCell>
        <mxCell id="mPOBOwqpveRPDrDFqY1y-110" value="3" style="strokeWidth=1;shadow=0;dashed=0;align=center;html=1;shape=mxgraph.mockup.forms.rrect;rSize=0;strokeColor=#999999;fontColor=#999999;" vertex="1" parent="mPOBOwqpveRPDrDFqY1y-97">
          <mxGeometry x="109.21874999999997" y="43.88571428571428" width="43.687499999999986" height="18.285714285714285" as="geometry" />
        </mxCell>
        <mxCell id="mPOBOwqpveRPDrDFqY1y-111" value="4" style="strokeWidth=1;shadow=0;dashed=0;align=center;html=1;shape=mxgraph.mockup.forms.rrect;rSize=0;strokeColor=#999999;fontColor=#999999;" vertex="1" parent="mPOBOwqpveRPDrDFqY1y-97">
          <mxGeometry x="152.90624999999994" y="43.88571428571428" width="43.687499999999986" height="18.285714285714285" as="geometry" />
        </mxCell>
        <mxCell id="mPOBOwqpveRPDrDFqY1y-112" value="5" style="strokeWidth=1;shadow=0;dashed=0;align=center;html=1;shape=mxgraph.mockup.forms.rrect;rSize=0;strokeColor=#999999;fontColor=#999999;" vertex="1" parent="mPOBOwqpveRPDrDFqY1y-97">
          <mxGeometry x="196.59374999999994" y="43.88571428571428" width="43.687499999999986" height="18.285714285714285" as="geometry" />
        </mxCell>
        <mxCell id="mPOBOwqpveRPDrDFqY1y-113" value="6" style="strokeWidth=1;shadow=0;dashed=0;align=center;html=1;shape=mxgraph.mockup.forms.rrect;rSize=0;strokeColor=#999999;fontColor=#999999;" vertex="1" parent="mPOBOwqpveRPDrDFqY1y-97">
          <mxGeometry x="240.28124999999997" y="43.88571428571428" width="43.687499999999986" height="18.285714285714285" as="geometry" />
        </mxCell>
        <mxCell id="mPOBOwqpveRPDrDFqY1y-114" value="7" style="strokeWidth=1;shadow=0;dashed=0;align=center;html=1;shape=mxgraph.mockup.forms.rrect;rSize=0;strokeColor=#999999;fontColor=#999999;" vertex="1" parent="mPOBOwqpveRPDrDFqY1y-97">
          <mxGeometry x="283.9687499999999" y="43.88571428571428" width="43.687499999999986" height="18.285714285714285" as="geometry" />
        </mxCell>
        <mxCell id="mPOBOwqpveRPDrDFqY1y-115" value="8" style="strokeWidth=1;shadow=0;dashed=0;align=center;html=1;shape=mxgraph.mockup.forms.rrect;rSize=0;strokeColor=#999999;fontColor=#999999;" vertex="1" parent="mPOBOwqpveRPDrDFqY1y-97">
          <mxGeometry x="21.843749999999993" y="62.17142857142857" width="43.687499999999986" height="18.285714285714285" as="geometry" />
        </mxCell>
        <mxCell id="mPOBOwqpveRPDrDFqY1y-116" value="9" style="strokeWidth=1;shadow=0;dashed=0;align=center;html=1;shape=mxgraph.mockup.forms.rrect;rSize=0;strokeColor=#999999;fontColor=#999999;" vertex="1" parent="mPOBOwqpveRPDrDFqY1y-97">
          <mxGeometry x="65.53125" y="62.17142857142857" width="43.687499999999986" height="18.285714285714285" as="geometry" />
        </mxCell>
        <mxCell id="mPOBOwqpveRPDrDFqY1y-117" value="10" style="strokeWidth=1;shadow=0;dashed=0;align=center;html=1;shape=mxgraph.mockup.forms.rrect;rSize=0;strokeColor=#999999;fontColor=#999999;" vertex="1" parent="mPOBOwqpveRPDrDFqY1y-97">
          <mxGeometry x="109.21874999999997" y="62.17142857142857" width="43.687499999999986" height="18.285714285714285" as="geometry" />
        </mxCell>
        <mxCell id="mPOBOwqpveRPDrDFqY1y-118" value="11" style="strokeWidth=1;shadow=0;dashed=0;align=center;html=1;shape=mxgraph.mockup.forms.rrect;rSize=0;strokeColor=#999999;fontColor=#999999;" vertex="1" parent="mPOBOwqpveRPDrDFqY1y-97">
          <mxGeometry x="152.90624999999994" y="62.17142857142857" width="43.687499999999986" height="18.285714285714285" as="geometry" />
        </mxCell>
        <mxCell id="mPOBOwqpveRPDrDFqY1y-119" value="12" style="strokeWidth=1;shadow=0;dashed=0;align=center;html=1;shape=mxgraph.mockup.forms.rrect;rSize=0;strokeColor=#999999;fontColor=#999999;" vertex="1" parent="mPOBOwqpveRPDrDFqY1y-97">
          <mxGeometry x="196.59374999999994" y="62.17142857142857" width="43.687499999999986" height="18.285714285714285" as="geometry" />
        </mxCell>
        <mxCell id="mPOBOwqpveRPDrDFqY1y-120" value="13" style="strokeWidth=1;shadow=0;dashed=0;align=center;html=1;shape=mxgraph.mockup.forms.rrect;rSize=0;strokeColor=#999999;fontColor=#999999;" vertex="1" parent="mPOBOwqpveRPDrDFqY1y-97">
          <mxGeometry x="240.28124999999997" y="62.17142857142857" width="43.687499999999986" height="18.285714285714285" as="geometry" />
        </mxCell>
        <mxCell id="mPOBOwqpveRPDrDFqY1y-121" value="14" style="strokeWidth=1;shadow=0;dashed=0;align=center;html=1;shape=mxgraph.mockup.forms.rrect;rSize=0;strokeColor=#999999;fontColor=#999999;" vertex="1" parent="mPOBOwqpveRPDrDFqY1y-97">
          <mxGeometry x="283.9687499999999" y="62.17142857142857" width="43.687499999999986" height="18.285714285714285" as="geometry" />
        </mxCell>
        <mxCell id="mPOBOwqpveRPDrDFqY1y-122" value="15" style="strokeWidth=1;shadow=0;dashed=0;align=center;html=1;shape=mxgraph.mockup.forms.rrect;rSize=0;strokeColor=#999999;fontColor=#999999;" vertex="1" parent="mPOBOwqpveRPDrDFqY1y-97">
          <mxGeometry x="21.843749999999993" y="80.45714285714286" width="43.687499999999986" height="18.285714285714285" as="geometry" />
        </mxCell>
        <mxCell id="mPOBOwqpveRPDrDFqY1y-123" value="16" style="strokeWidth=1;shadow=0;dashed=0;align=center;html=1;shape=mxgraph.mockup.forms.rrect;rSize=0;strokeColor=#999999;fontColor=#999999;" vertex="1" parent="mPOBOwqpveRPDrDFqY1y-97">
          <mxGeometry x="65.53125" y="80.45714285714286" width="43.687499999999986" height="18.285714285714285" as="geometry" />
        </mxCell>
        <mxCell id="mPOBOwqpveRPDrDFqY1y-124" value="17" style="strokeWidth=1;shadow=0;dashed=0;align=center;html=1;shape=mxgraph.mockup.forms.rrect;rSize=0;strokeColor=#999999;fontColor=#999999;" vertex="1" parent="mPOBOwqpveRPDrDFqY1y-97">
          <mxGeometry x="109.21874999999997" y="80.45714285714286" width="43.687499999999986" height="18.285714285714285" as="geometry" />
        </mxCell>
        <mxCell id="mPOBOwqpveRPDrDFqY1y-125" value="18" style="strokeWidth=1;shadow=0;dashed=0;align=center;html=1;shape=mxgraph.mockup.forms.rrect;rSize=0;strokeColor=#999999;fontColor=#999999;" vertex="1" parent="mPOBOwqpveRPDrDFqY1y-97">
          <mxGeometry x="152.90624999999994" y="80.45714285714286" width="43.687499999999986" height="18.285714285714285" as="geometry" />
        </mxCell>
        <mxCell id="mPOBOwqpveRPDrDFqY1y-126" value="19" style="strokeWidth=1;shadow=0;dashed=0;align=center;html=1;shape=mxgraph.mockup.forms.rrect;rSize=0;strokeColor=#999999;fontColor=#999999;" vertex="1" parent="mPOBOwqpveRPDrDFqY1y-97">
          <mxGeometry x="196.59374999999994" y="80.45714285714286" width="43.687499999999986" height="18.285714285714285" as="geometry" />
        </mxCell>
        <mxCell id="mPOBOwqpveRPDrDFqY1y-127" value="20" style="strokeWidth=1;shadow=0;dashed=0;align=center;html=1;shape=mxgraph.mockup.forms.rrect;rSize=0;strokeColor=#999999;fontColor=#999999;" vertex="1" parent="mPOBOwqpveRPDrDFqY1y-97">
          <mxGeometry x="240.28124999999997" y="80.45714285714286" width="43.687499999999986" height="18.285714285714285" as="geometry" />
        </mxCell>
        <mxCell id="mPOBOwqpveRPDrDFqY1y-128" value="21" style="strokeWidth=1;shadow=0;dashed=0;align=center;html=1;shape=mxgraph.mockup.forms.rrect;rSize=0;strokeColor=#999999;fontColor=#999999;" vertex="1" parent="mPOBOwqpveRPDrDFqY1y-97">
          <mxGeometry x="283.9687499999999" y="80.45714285714286" width="43.687499999999986" height="18.285714285714285" as="geometry" />
        </mxCell>
        <mxCell id="mPOBOwqpveRPDrDFqY1y-129" value="22" style="strokeWidth=1;shadow=0;dashed=0;align=center;html=1;shape=mxgraph.mockup.forms.rrect;rSize=0;strokeColor=#999999;fontColor=#999999;" vertex="1" parent="mPOBOwqpveRPDrDFqY1y-97">
          <mxGeometry x="21.843749999999993" y="98.74285714285713" width="43.687499999999986" height="18.285714285714285" as="geometry" />
        </mxCell>
        <mxCell id="mPOBOwqpveRPDrDFqY1y-130" value="23" style="strokeWidth=1;shadow=0;dashed=0;align=center;html=1;shape=mxgraph.mockup.forms.rrect;rSize=0;strokeColor=#999999;fontColor=#999999;" vertex="1" parent="mPOBOwqpveRPDrDFqY1y-97">
          <mxGeometry x="65.53125" y="98.74285714285713" width="43.687499999999986" height="18.285714285714285" as="geometry" />
        </mxCell>
        <mxCell id="mPOBOwqpveRPDrDFqY1y-131" value="25" style="strokeWidth=1;shadow=0;dashed=0;align=center;html=1;shape=mxgraph.mockup.forms.rrect;rSize=0;strokeColor=#999999;fontColor=#999999;" vertex="1" parent="mPOBOwqpveRPDrDFqY1y-97">
          <mxGeometry x="152.90624999999994" y="98.74285714285713" width="43.687499999999986" height="18.285714285714285" as="geometry" />
        </mxCell>
        <mxCell id="mPOBOwqpveRPDrDFqY1y-132" value="26" style="strokeWidth=1;shadow=0;dashed=0;align=center;html=1;shape=mxgraph.mockup.forms.rrect;rSize=0;strokeColor=#999999;fontColor=#999999;" vertex="1" parent="mPOBOwqpveRPDrDFqY1y-97">
          <mxGeometry x="196.59374999999994" y="98.74285714285713" width="43.687499999999986" height="18.285714285714285" as="geometry" />
        </mxCell>
        <mxCell id="mPOBOwqpveRPDrDFqY1y-133" value="27" style="strokeWidth=1;shadow=0;dashed=0;align=center;html=1;shape=mxgraph.mockup.forms.rrect;rSize=0;strokeColor=#999999;fontColor=#999999;" vertex="1" parent="mPOBOwqpveRPDrDFqY1y-97">
          <mxGeometry x="240.28124999999997" y="98.74285714285713" width="43.687499999999986" height="18.285714285714285" as="geometry" />
        </mxCell>
        <mxCell id="mPOBOwqpveRPDrDFqY1y-134" value="28" style="strokeWidth=1;shadow=0;dashed=0;align=center;html=1;shape=mxgraph.mockup.forms.rrect;rSize=0;strokeColor=#999999;fontColor=#999999;" vertex="1" parent="mPOBOwqpveRPDrDFqY1y-97">
          <mxGeometry x="283.9687499999999" y="98.74285714285713" width="43.687499999999986" height="18.285714285714285" as="geometry" />
        </mxCell>
        <mxCell id="mPOBOwqpveRPDrDFqY1y-135" value="29" style="strokeWidth=1;shadow=0;dashed=0;align=center;html=1;shape=mxgraph.mockup.forms.rrect;rSize=0;strokeColor=#999999;fontColor=#999999;" vertex="1" parent="mPOBOwqpveRPDrDFqY1y-97">
          <mxGeometry x="21.843749999999993" y="117.02857142857142" width="43.687499999999986" height="18.285714285714285" as="geometry" />
        </mxCell>
        <mxCell id="mPOBOwqpveRPDrDFqY1y-136" value="30" style="strokeWidth=1;shadow=0;dashed=0;align=center;html=1;shape=mxgraph.mockup.forms.rrect;rSize=0;strokeColor=#999999;fontColor=#999999;" vertex="1" parent="mPOBOwqpveRPDrDFqY1y-97">
          <mxGeometry x="65.53125" y="117.02857142857142" width="43.687499999999986" height="18.285714285714285" as="geometry" />
        </mxCell>
        <mxCell id="mPOBOwqpveRPDrDFqY1y-137" value="31" style="strokeWidth=1;shadow=0;dashed=0;align=center;html=1;shape=mxgraph.mockup.forms.rrect;rSize=0;strokeColor=#999999;fontColor=#999999;" vertex="1" parent="mPOBOwqpveRPDrDFqY1y-97">
          <mxGeometry x="109.21874999999997" y="117.02857142857142" width="43.687499999999986" height="18.285714285714285" as="geometry" />
        </mxCell>
        <mxCell id="mPOBOwqpveRPDrDFqY1y-138" value="1" style="strokeWidth=1;shadow=0;dashed=0;align=center;html=1;shape=mxgraph.mockup.forms.rrect;rSize=0;strokeColor=#999999;fontColor=#999999;fillColor=#ddeeff;" vertex="1" parent="mPOBOwqpveRPDrDFqY1y-97">
          <mxGeometry x="152.90624999999994" y="117.02857142857142" width="43.687499999999986" height="18.285714285714285" as="geometry" />
        </mxCell>
        <mxCell id="mPOBOwqpveRPDrDFqY1y-139" value="2" style="strokeWidth=1;shadow=0;dashed=0;align=center;html=1;shape=mxgraph.mockup.forms.rrect;rSize=0;strokeColor=#999999;fontColor=#999999;fillColor=#ddeeff;" vertex="1" parent="mPOBOwqpveRPDrDFqY1y-97">
          <mxGeometry x="196.59374999999994" y="117.02857142857142" width="43.687499999999986" height="18.285714285714285" as="geometry" />
        </mxCell>
        <mxCell id="mPOBOwqpveRPDrDFqY1y-140" value="3" style="strokeWidth=1;shadow=0;dashed=0;align=center;html=1;shape=mxgraph.mockup.forms.rrect;rSize=0;strokeColor=#999999;fontColor=#999999;fillColor=#ddeeff;" vertex="1" parent="mPOBOwqpveRPDrDFqY1y-97">
          <mxGeometry x="240.28124999999997" y="117.02857142857142" width="43.687499999999986" height="18.285714285714285" as="geometry" />
        </mxCell>
        <mxCell id="mPOBOwqpveRPDrDFqY1y-141" value="4" style="strokeWidth=1;shadow=0;dashed=0;align=center;html=1;shape=mxgraph.mockup.forms.rrect;rSize=0;strokeColor=#999999;fontColor=#999999;fillColor=#ddeeff;" vertex="1" parent="mPOBOwqpveRPDrDFqY1y-97">
          <mxGeometry x="283.9687499999999" y="117.02857142857142" width="43.687499999999986" height="18.285714285714285" as="geometry" />
        </mxCell>
        <mxCell id="mPOBOwqpveRPDrDFqY1y-142" value="5" style="strokeWidth=1;shadow=0;dashed=0;align=center;html=1;shape=mxgraph.mockup.forms.rrect;rSize=0;strokeColor=#999999;fontColor=#999999;fillColor=#ddeeff;" vertex="1" parent="mPOBOwqpveRPDrDFqY1y-97">
          <mxGeometry x="21.843749999999993" y="135.3142857142857" width="43.687499999999986" height="18.285714285714285" as="geometry" />
        </mxCell>
        <mxCell id="mPOBOwqpveRPDrDFqY1y-143" value="6" style="strokeWidth=1;shadow=0;dashed=0;align=center;html=1;shape=mxgraph.mockup.forms.rrect;rSize=0;strokeColor=#999999;fontColor=#999999;fillColor=#ddeeff;" vertex="1" parent="mPOBOwqpveRPDrDFqY1y-97">
          <mxGeometry x="65.53125" y="135.3142857142857" width="43.687499999999986" height="18.285714285714285" as="geometry" />
        </mxCell>
        <mxCell id="mPOBOwqpveRPDrDFqY1y-144" value="7" style="strokeWidth=1;shadow=0;dashed=0;align=center;html=1;shape=mxgraph.mockup.forms.rrect;rSize=0;strokeColor=#999999;fontColor=#999999;fillColor=#ddeeff;" vertex="1" parent="mPOBOwqpveRPDrDFqY1y-97">
          <mxGeometry x="109.21874999999997" y="135.3142857142857" width="43.687499999999986" height="18.285714285714285" as="geometry" />
        </mxCell>
        <mxCell id="mPOBOwqpveRPDrDFqY1y-145" value="8" style="strokeWidth=1;shadow=0;dashed=0;align=center;html=1;shape=mxgraph.mockup.forms.rrect;rSize=0;strokeColor=#999999;fontColor=#999999;fillColor=#ddeeff;" vertex="1" parent="mPOBOwqpveRPDrDFqY1y-97">
          <mxGeometry x="152.90624999999994" y="135.3142857142857" width="43.687499999999986" height="18.285714285714285" as="geometry" />
        </mxCell>
        <mxCell id="mPOBOwqpveRPDrDFqY1y-146" value="9" style="strokeWidth=1;shadow=0;dashed=0;align=center;html=1;shape=mxgraph.mockup.forms.rrect;rSize=0;strokeColor=#999999;fontColor=#999999;fillColor=#ddeeff;" vertex="1" parent="mPOBOwqpveRPDrDFqY1y-97">
          <mxGeometry x="196.59374999999994" y="135.3142857142857" width="43.687499999999986" height="18.285714285714285" as="geometry" />
        </mxCell>
        <mxCell id="mPOBOwqpveRPDrDFqY1y-147" value="10" style="strokeWidth=1;shadow=0;dashed=0;align=center;html=1;shape=mxgraph.mockup.forms.rrect;rSize=0;strokeColor=#999999;fontColor=#999999;fillColor=#ddeeff;" vertex="1" parent="mPOBOwqpveRPDrDFqY1y-97">
          <mxGeometry x="240.28124999999997" y="135.3142857142857" width="43.687499999999986" height="18.285714285714285" as="geometry" />
        </mxCell>
        <mxCell id="mPOBOwqpveRPDrDFqY1y-148" value="11" style="strokeWidth=1;shadow=0;dashed=0;align=center;html=1;shape=mxgraph.mockup.forms.rrect;rSize=0;strokeColor=#999999;fontColor=#999999;fillColor=#ddeeff;" vertex="1" parent="mPOBOwqpveRPDrDFqY1y-97">
          <mxGeometry x="283.9687499999999" y="135.3142857142857" width="43.687499999999986" height="18.285714285714285" as="geometry" />
        </mxCell>
        <mxCell id="mPOBOwqpveRPDrDFqY1y-149" value="24" style="strokeWidth=1;shadow=0;dashed=0;align=center;html=1;shape=mxgraph.mockup.forms.rrect;rSize=0;strokeColor=#ff0000;fontColor=#ffffff;strokeWidth=2;fillColor=#008cff;" vertex="1" parent="mPOBOwqpveRPDrDFqY1y-97">
          <mxGeometry x="109.21874999999997" y="98.74285714285713" width="43.687499999999986" height="18.285714285714285" as="geometry" />
        </mxCell>
        <mxCell id="mPOBOwqpveRPDrDFqY1y-162" value="&lt;div&gt;Upcoming Assignments&lt;/div&gt;" style="shape=table;startSize=30;container=1;collapsible=1;childLayout=tableLayout;fixedRows=1;rowLines=0;fontStyle=1;align=center;resizeLast=1;html=1;whiteSpace=wrap;" vertex="1" parent="1">
          <mxGeometry x="809.5" y="204" width="350" height="150" as="geometry">
            <mxRectangle x="30" y="210" width="70" height="30" as="alternateBounds" />
          </mxGeometry>
        </mxCell>
        <mxCell id="mPOBOwqpveRPDrDFqY1y-163" value="" style="shape=tableRow;horizontal=0;startSize=0;swimlaneHead=0;swimlaneBody=0;fillColor=none;collapsible=0;dropTarget=0;points=[[0,0.5],[1,0.5]];portConstraint=eastwest;top=0;left=0;right=0;bottom=0;html=1;" vertex="1" parent="mPOBOwqpveRPDrDFqY1y-162">
          <mxGeometry y="30" width="350" height="30" as="geometry" />
        </mxCell>
        <mxCell id="mPOBOwqpveRPDrDFqY1y-164" value="11/12/23" style="shape=partialRectangle;connectable=0;fillColor=none;top=0;left=0;bottom=0;right=0;fontStyle=1;overflow=hidden;html=1;whiteSpace=wrap;" vertex="1" parent="mPOBOwqpveRPDrDFqY1y-163">
          <mxGeometry width="60" height="30" as="geometry">
            <mxRectangle width="60" height="30" as="alternateBounds" />
          </mxGeometry>
        </mxCell>
        <mxCell id="mPOBOwqpveRPDrDFqY1y-165" value="BS1202 Innovation Systems" style="shape=partialRectangle;connectable=0;fillColor=none;top=0;left=0;bottom=0;right=0;align=left;spacingLeft=6;fontStyle=5;overflow=hidden;html=1;whiteSpace=wrap;" vertex="1" parent="mPOBOwqpveRPDrDFqY1y-163">
          <mxGeometry x="60" width="290" height="30" as="geometry">
            <mxRectangle width="290" height="30" as="alternateBounds" />
          </mxGeometry>
        </mxCell>
        <mxCell id="mPOBOwqpveRPDrDFqY1y-166" value="" style="shape=tableRow;horizontal=0;startSize=0;swimlaneHead=0;swimlaneBody=0;fillColor=none;collapsible=0;dropTarget=0;points=[[0,0.5],[1,0.5]];portConstraint=eastwest;top=0;left=0;right=0;bottom=1;html=1;" vertex="1" parent="mPOBOwqpveRPDrDFqY1y-162">
          <mxGeometry y="60" width="350" height="30" as="geometry" />
        </mxCell>
        <mxCell id="mPOBOwqpveRPDrDFqY1y-167" value="08/01/24" style="shape=partialRectangle;connectable=0;fillColor=none;top=0;left=0;bottom=0;right=0;fontStyle=1;overflow=hidden;html=1;whiteSpace=wrap;" vertex="1" parent="mPOBOwqpveRPDrDFqY1y-166">
          <mxGeometry width="60" height="30" as="geometry">
            <mxRectangle width="60" height="30" as="alternateBounds" />
          </mxGeometry>
        </mxCell>
        <mxCell id="mPOBOwqpveRPDrDFqY1y-168" value="BS1912 Information Systems" style="shape=partialRectangle;connectable=0;fillColor=none;top=0;left=0;bottom=0;right=0;align=left;spacingLeft=6;fontStyle=5;overflow=hidden;html=1;whiteSpace=wrap;" vertex="1" parent="mPOBOwqpveRPDrDFqY1y-166">
          <mxGeometry x="60" width="290" height="30" as="geometry">
            <mxRectangle width="290" height="30" as="alternateBounds" />
          </mxGeometry>
        </mxCell>
        <mxCell id="mPOBOwqpveRPDrDFqY1y-169" value="" style="shape=tableRow;horizontal=0;startSize=0;swimlaneHead=0;swimlaneBody=0;fillColor=none;collapsible=0;dropTarget=0;points=[[0,0.5],[1,0.5]];portConstraint=eastwest;top=0;left=0;right=0;bottom=0;html=1;" vertex="1" parent="mPOBOwqpveRPDrDFqY1y-162">
          <mxGeometry y="90" width="350" height="30" as="geometry" />
        </mxCell>
        <mxCell id="mPOBOwqpveRPDrDFqY1y-170" value="09/01/24" style="shape=partialRectangle;connectable=0;fillColor=none;top=0;left=0;bottom=0;right=0;editable=1;overflow=hidden;html=1;whiteSpace=wrap;fontStyle=1" vertex="1" parent="mPOBOwqpveRPDrDFqY1y-169">
          <mxGeometry width="60" height="30" as="geometry">
            <mxRectangle width="60" height="30" as="alternateBounds" />
          </mxGeometry>
        </mxCell>
        <mxCell id="mPOBOwqpveRPDrDFqY1y-171" value="&lt;b&gt;&lt;u&gt;BS1930 Academic and Professional Skills&lt;/u&gt;&lt;br&gt;&lt;/b&gt;" style="shape=partialRectangle;connectable=0;fillColor=none;top=0;left=0;bottom=0;right=0;align=left;spacingLeft=6;overflow=hidden;html=1;whiteSpace=wrap;" vertex="1" parent="mPOBOwqpveRPDrDFqY1y-169">
          <mxGeometry x="60" width="290" height="30" as="geometry">
            <mxRectangle width="290" height="30" as="alternateBounds" />
          </mxGeometry>
        </mxCell>
        <mxCell id="mPOBOwqpveRPDrDFqY1y-172" value="" style="shape=tableRow;horizontal=0;startSize=0;swimlaneHead=0;swimlaneBody=0;fillColor=none;collapsible=0;dropTarget=0;points=[[0,0.5],[1,0.5]];portConstraint=eastwest;top=0;left=0;right=0;bottom=0;html=1;" vertex="1" parent="mPOBOwqpveRPDrDFqY1y-162">
          <mxGeometry y="120" width="350" height="30" as="geometry" />
        </mxCell>
        <mxCell id="mPOBOwqpveRPDrDFqY1y-173" value="&lt;b&gt;15/01/24&lt;/b&gt;" style="shape=partialRectangle;connectable=0;fillColor=none;top=0;left=0;bottom=0;right=0;editable=1;overflow=hidden;html=1;whiteSpace=wrap;" vertex="1" parent="mPOBOwqpveRPDrDFqY1y-172">
          <mxGeometry width="60" height="30" as="geometry">
            <mxRectangle width="60" height="30" as="alternateBounds" />
          </mxGeometry>
        </mxCell>
        <mxCell id="mPOBOwqpveRPDrDFqY1y-174" value="&lt;b&gt;&lt;u&gt;BS1220 Software Design and Development&lt;br&gt;&lt;/u&gt;&lt;/b&gt;" style="shape=partialRectangle;connectable=0;fillColor=none;top=0;left=0;bottom=0;right=0;align=left;spacingLeft=6;overflow=hidden;html=1;whiteSpace=wrap;" vertex="1" parent="mPOBOwqpveRPDrDFqY1y-172">
          <mxGeometry x="60" width="290" height="30" as="geometry">
            <mxRectangle width="290" height="30" as="alternateBounds" />
          </mxGeometry>
        </mxCell>
        <mxCell id="mPOBOwqpveRPDrDFqY1y-185" value="" style="verticalLabelPosition=bottom;shadow=0;dashed=0;align=center;html=1;verticalAlign=top;strokeWidth=1;shape=mxgraph.mockup.graphics.lineChart;strokeColor=none;strokeColor2=#666666;strokeColor3=#008cff;strokeColor4=#dddddd;" vertex="1" parent="1">
          <mxGeometry x="584" y="26" width="198" height="144" as="geometry" />
        </mxCell>
        <mxCell id="mPOBOwqpveRPDrDFqY1y-189" value="Engagement" style="text;strokeColor=none;fillColor=none;html=1;fontSize=24;fontStyle=1;verticalAlign=middle;align=center;" vertex="1" parent="1">
          <mxGeometry x="633" y="78" width="100" height="40" as="geometry" />
        </mxCell>
        <mxCell id="mPOBOwqpveRPDrDFqY1y-190" value="" style="verticalLabelPosition=bottom;shadow=0;dashed=0;align=center;html=1;verticalAlign=top;strokeWidth=1;shape=mxgraph.mockup.graphics.pieChart;strokeColor=#008cff;parts=10,20,35;partColors=#e0e0e0,#d0d0d0,#c0c0c0,#b0b0b0,#a0a0a0;strokeWidth=2;" vertex="1" parent="1">
          <mxGeometry x="380" y="4" width="200" height="200" as="geometry" />
        </mxCell>
        <mxCell id="mPOBOwqpveRPDrDFqY1y-191" value="Attendance" style="text;strokeColor=none;fillColor=none;html=1;fontSize=24;fontStyle=1;verticalAlign=middle;align=center;" vertex="1" parent="1">
          <mxGeometry x="430" y="81" width="100" height="40" as="geometry" />
        </mxCell>
        <mxCell id="mPOBOwqpveRPDrDFqY1y-193" value="" style="dashed=0;align=center;fontSize=12;shape=rect;fillColor=#ffffff;strokeColor=none;shadow=0;recursiveResize=0;" vertex="1" parent="1">
          <mxGeometry width="358" height="360" as="geometry" />
        </mxCell>
        <mxCell id="mPOBOwqpveRPDrDFqY1y-194" value="" style="shape=mxgraph.mockup.containers.userMale;strokeColor=#666666;fillColor=#ffffff;align=center;labelPosition=right;verticalLabelPosition=bottom;verticalAlign=top;spacingLeft=10;fontSize=14;html=1;labelBackgroundColor=#ffffff;strokeWidth=1;shadow=0;dashed=0;strokeColor2=#008cff;" vertex="1" parent="mPOBOwqpveRPDrDFqY1y-193">
          <mxGeometry x="15" y="25" width="40" height="40" as="geometry" />
        </mxCell>
        <mxCell id="mPOBOwqpveRPDrDFqY1y-195" value="" style="shape=mxgraph.mockup.containers.userFemale;strokeColor=#666666;fillColor=#ffffff;align=center;labelPosition=right;verticalLabelPosition=bottom;verticalAlign=top;spacingLeft=10;fontSize=14;html=1;labelBackgroundColor=#ffffff;strokeWidth=1;shadow=0;dashed=0;strokeColor2=#008cff;" vertex="1" parent="mPOBOwqpveRPDrDFqY1y-193">
          <mxGeometry x="15" y="90" width="40" height="40" as="geometry" />
        </mxCell>
        <mxCell id="mPOBOwqpveRPDrDFqY1y-196" value="" style="shape=mxgraph.mockup.containers.userMale;strokeColor=#666666;fillColor=#ffffff;align=center;labelPosition=right;verticalLabelPosition=bottom;verticalAlign=top;spacingLeft=10;fontSize=14;html=1;labelBackgroundColor=#ffffff;strokeWidth=1;shadow=0;dashed=0;strokeColor2=#008cff;" vertex="1" parent="mPOBOwqpveRPDrDFqY1y-193">
          <mxGeometry x="15" y="160" width="40" height="40" as="geometry" />
        </mxCell>
        <mxCell id="mPOBOwqpveRPDrDFqY1y-197" value="" style="shape=mxgraph.mockup.containers.userMale;strokeColor=#666666;fillColor=#ffffff;align=center;labelPosition=right;verticalLabelPosition=bottom;verticalAlign=top;spacingLeft=10;fontSize=14;html=1;labelBackgroundColor=#ffffff;strokeWidth=1;shadow=0;dashed=0;strokeColor2=#008cff;" vertex="1" parent="mPOBOwqpveRPDrDFqY1y-193">
          <mxGeometry x="15" y="230" width="40" height="40" as="geometry" />
        </mxCell>
        <mxCell id="mPOBOwqpveRPDrDFqY1y-198" value="" style="shape=mxgraph.mockup.containers.userFemale;strokeColor=#666666;fillColor=#ffffff;align=center;labelPosition=right;verticalLabelPosition=bottom;verticalAlign=top;spacingLeft=10;fontSize=14;html=1;labelBackgroundColor=#ffffff;strokeWidth=1;shadow=0;dashed=0;strokeColor2=#008cff;" vertex="1" parent="mPOBOwqpveRPDrDFqY1y-193">
          <mxGeometry x="15" y="300" width="40" height="40" as="geometry" />
        </mxCell>
        <mxCell id="mPOBOwqpveRPDrDFqY1y-199" value="Module Tutor" style="text;strokeColor=none;fillColor=none;html=1;fontSize=24;fontStyle=1;verticalAlign=middle;align=center;" vertex="1" parent="mPOBOwqpveRPDrDFqY1y-193">
          <mxGeometry x="129" y="25" width="100" height="40" as="geometry" />
        </mxCell>
        <mxCell id="mPOBOwqpveRPDrDFqY1y-203" value="Personal Academic Tutor" style="text;strokeColor=none;fillColor=none;html=1;fontSize=24;fontStyle=1;verticalAlign=middle;align=center;" vertex="1" parent="mPOBOwqpveRPDrDFqY1y-193">
          <mxGeometry x="160" y="300" width="100" height="40" as="geometry" />
        </mxCell>
        <mxCell id="mPOBOwqpveRPDrDFqY1y-202" value="Module Tutor" style="text;strokeColor=none;fillColor=none;html=1;fontSize=24;fontStyle=1;verticalAlign=middle;align=center;" vertex="1" parent="mPOBOwqpveRPDrDFqY1y-193">
          <mxGeometry x="129" y="230" width="100" height="40" as="geometry" />
        </mxCell>
        <mxCell id="mPOBOwqpveRPDrDFqY1y-201" value="Module Tutor" style="text;strokeColor=none;fillColor=none;html=1;fontSize=24;fontStyle=1;verticalAlign=middle;align=center;" vertex="1" parent="mPOBOwqpveRPDrDFqY1y-193">
          <mxGeometry x="129" y="160" width="100" height="40" as="geometry" />
        </mxCell>
        <mxCell id="mPOBOwqpveRPDrDFqY1y-200" value="Module Tutor" style="text;strokeColor=none;fillColor=none;html=1;fontSize=24;fontStyle=1;verticalAlign=middle;align=center;" vertex="1" parent="mPOBOwqpveRPDrDFqY1y-193">
          <mxGeometry x="129" y="90" width="100" height="40" as="geometry" />
        </mxCell>
        <mxCell id="mPOBOwqpveRPDrDFqY1y-215" value="" style="verticalLabelPosition=bottom;shadow=0;dashed=0;align=center;html=1;verticalAlign=top;strokeWidth=1;shape=mxgraph.mockup.misc.map;" vertex="1" parent="1">
          <mxGeometry x="800" y="590" width="369" height="220" as="geometry" />
        </mxCell>
        <mxCell id="mPOBOwqpveRPDrDFqY1y-219" value="" style="verticalLabelPosition=bottom;verticalAlign=top;html=1;shape=mxgraph.basic.patternFillRect;fillStyle=diagRev;step=5;fillStrokeWidth=0.2;fillStrokeColor=#dddddd;" vertex="1" parent="1">
          <mxGeometry y="-40" width="1169" height="40" as="geometry" />
        </mxCell>
        <mxCell id="mPOBOwqpveRPDrDFqY1y-225" value="" style="html=1;strokeWidth=1;shadow=0;dashed=0;shape=mxgraph.ios7ui.rrect;rSize=3;strokeColor=#0080F0;gradientColor=none;whiteSpace=wrap;" vertex="1" parent="1">
          <mxGeometry x="820" y="110" width="330" height="47" as="geometry" />
        </mxCell>
        <mxCell id="mPOBOwqpveRPDrDFqY1y-226" value="E-Card" style="strokeColor=inherit;fillColor=inherit;gradientColor=inherit;html=1;strokeWidth=1;shadow=0;dashed=0;shape=mxgraph.ios7ui.leftButton;rSize=3;fontSize=8;whiteSpace=wrap;" vertex="1" parent="mPOBOwqpveRPDrDFqY1y-225">
          <mxGeometry width="82.5" height="47" as="geometry" />
        </mxCell>
        <mxCell id="mPOBOwqpveRPDrDFqY1y-227" value="Catering" style="strokeColor=inherit;fillColor=inherit;gradientColor=inherit;html=1;strokeWidth=1;shadow=0;dashed=0;shape=mxgraph.ios7ui.rrect;rSize=0;fontSize=8;whiteSpace=wrap;" vertex="1" parent="mPOBOwqpveRPDrDFqY1y-225">
          <mxGeometry x="165" width="82.5" height="47" as="geometry" />
        </mxCell>
        <mxCell id="mPOBOwqpveRPDrDFqY1y-228" value="Help" style="strokeColor=inherit;fillColor=inherit;gradientColor=inherit;html=1;strokeWidth=1;shadow=0;dashed=0;shape=mxgraph.ios7ui.rightButton;rSize=3;fontSize=8;whiteSpace=wrap;" vertex="1" parent="mPOBOwqpveRPDrDFqY1y-225">
          <mxGeometry x="247.5" width="82.5" height="47" as="geometry" />
        </mxCell>
        <mxCell id="mPOBOwqpveRPDrDFqY1y-229" value="Mail" style="html=1;strokeWidth=1;shadow=0;dashed=0;shape=mxgraph.ios7ui.rrect;rSize=0;strokeColor=#0080F0;fillColor=#0080F0;fontColor=#ffffff;fontSize=8;whiteSpace=wrap;" vertex="1" parent="mPOBOwqpveRPDrDFqY1y-225">
          <mxGeometry x="82.5" width="82.5" height="47" as="geometry" />
        </mxCell>
      </root>
    </mxGraphModel>
  </diagram>
</mxfile>
